<svg height="40" viewBox="0 0 129 40" width="129" xmlns="http://www.w3.org/2000/svg"><g fill="none" fill-rule="evenodd"><rect fill="#49cc68" height="40" rx="20" width="129"/><g fill="#fff"><path d="m64.79 24.168c-2.814 0-4.984-1.96-4.984-4.83 0-2.884 2.17-4.83 4.984-4.83 2.044 0 3.234 1.106 3.892 2.282l-1.708.84c-.392-.756-1.232-1.358-2.184-1.358-1.708 0-2.94 1.302-2.94 3.066s1.232 3.066 2.94 3.066c.952 0 1.792-.602 2.184-1.358l1.708.826c-.658 1.162-1.848 2.296-3.892 2.296zm8.176 0c-2.226 0-3.57-1.638-3.57-3.556s1.344-3.542 3.57-3.542c2.24 0 3.584 1.624 3.584 3.542s-1.344 3.556-3.584 3.556zm0-1.582c1.12 0 1.736-.91 1.736-1.974 0-1.05-.616-1.96-1.736-1.96-1.106 0-1.722.91-1.722 1.96 0 1.064.616 1.974 1.722 1.974zm11.27 1.414h-1.792v-4.088c0-.938-.49-1.26-1.246-1.26-.7 0-1.232.392-1.54.784v4.564h-1.778v-6.762h1.778v.868c.434-.504 1.274-1.036 2.366-1.036 1.498 0 2.212.84 2.212 2.156zm8.106 0h-1.792v-4.088c0-.938-.49-1.26-1.246-1.26-.7 0-1.232.392-1.54.784v4.564h-1.778v-6.762h1.778v.868c.434-.504 1.274-1.036 2.366-1.036 1.498 0 2.212.84 2.212 2.156zm4.928.168c-2.058 0-3.612-1.386-3.612-3.556 0-1.96 1.456-3.542 3.5-3.542 2.03 0 3.388 1.512 3.388 3.71v.42h-5.026c.126.826.798 1.512 1.946 1.512.574 0 1.358-.238 1.792-.658l.798 1.176c-.672.616-1.736.938-2.786.938zm1.568-4.2c-.056-.644-.504-1.442-1.68-1.442-1.106 0-1.582.77-1.652 1.442zm6.146 4.2c-2.072 0-3.584-1.47-3.584-3.556 0-2.072 1.512-3.542 3.584-3.542 1.386 0 2.226.602 2.674 1.218l-1.162 1.092c-.322-.476-.812-.728-1.428-.728-1.078 0-1.834.784-1.834 1.96s.756 1.974 1.834 1.974c.616 0 1.106-.28 1.428-.742l1.162 1.092c-.448.616-1.288 1.232-2.674 1.232zm6.104 0c-1.246 0-1.904-.644-1.904-1.862v-3.514h-1.12v-1.554h1.12v-1.848h1.778v1.848h1.372v1.554h-1.372v3.038c0 .434.224.756.616.756.266 0 .518-.098.616-.21l.378 1.358c-.266.238-.742.434-1.484.434z" fill-rule="nonzero"/><path d="m46 4h1v32h-1z" opacity=".24"/><path d="m31.4956938 21.3147826c-.5501307 1.1853913-1.2597993 2.2486957-2.0470364 3.1241739.5688352-2.1177391.29432-4.8526956-.9368725-7.5088695-.643653-1.3878261-1.4969057-2.6363479-2.487141-3.6542609 1.5497182-1.1874783 3.1632516-1.5746087 4.4103979-1.0283478.7987898.3500869 1.4154863 1.0674782 1.7824235 2.0733913.6948151 1.905913.425251 4.5208695-.7217715 6.993913m-12.9913366 0c-1.1475727-2.4730435-1.4171367-5.088-.7217715-6.993913.3669372-1.0059131.9830836-1.7233044 1.7824235-2.0733913 1.2465962-.5467826 2.8606797-.1591305 4.4103979 1.0283478-.9907854 1.017913-1.8440382 2.2664348-2.487141 3.6542609-1.2317426 2.6561739-1.5057077 5.3911304-.9374227 7.5088695-.787237-.8754782-1.4969056-1.9387826-2.0464862-3.1241739m7.6578194 5.3587826c-.3575849.1570435-.7487279.2389565-1.1624262.2441739-.4136983-.0052174-.8048412-.0871304-1.1624262-.2441739-2.4013205-1.0518261-2.8865358-5.268-1.060652-9.2066087.5792877-1.2490435 1.3406686-2.3702608 2.2214278-3.2780869.8818596.9083478 1.645441 2.028 2.2247286 3.2786087 1.826434 3.9380869 1.3406685 8.1542608-1.060652 9.2060869m3.2606247-15.9975652c-1.422638-.0563478-2.9734565.5206957-4.4225007 1.6716522-1.4490443-1.1509565-2.9998628-1.7285218-4.4230509-1.6726957 1.2553983-.8509565 2.7880624-1.33982607 4.4219506-1.33982607 1.6344383 0 3.1682027.48939131 4.423601 1.34086957m4.1309315 3.2264348c-.0005502-.0010435-.0005502-.0026087-.0011003-.0041739-.0011003-.0026087-.0022005-.0046957-.0027506-.0073044-.0011003-.0020869-.0016504-.0041739-.0022006-.0067826-.0016504-.0041739-.0038509-.0083478-.0055013-.0130435-1.2014854-3.5128695-4.6304501-5.8711304-8.5429797-5.8711304-3.9229821 0-7.3607488 2.3702609-8.5534322 5.8982609-.0022005.0057391-.0022005.012-.0038509.0177391-.7943888 2.2121739-.5066704 5.1756522.7734837 7.9366957 1.7516162 3.7768695 4.9297213 6.4012173 7.74419 6.4012173.0137533 0 .0269564-.0005217.0401595-.0005217.0137533 0 .0269564.0005217.0401596.0005217 2.8144687-.0005217 5.9931239-2.6243478 7.7441899-6.4012173 1.2829048-2.7662609 1.5695229-5.736.7696329-7.9502609m-6.1466104 16.4285217c-.7905378.2217392-1.5788751.3339131-2.3430067.3339131h-.1116765c-.7690827 0-1.5629213-.1137392-2.3584103-.338087-.3729887-.1048696-.7646817.0965217-.875258.4497391-.1111264.3532174.1012241.7246957.4742127.830087.9253198.2608696 1.8539404.3933913 2.7594556.3933913h.1116765c.8989136 0 1.8220329-.1309565 2.7418515-.3886957.3729886-.1043478.5858892-.475826.475863-.8295652-.1100261-.3532174-.5017192-.5556521-.8747078-.4507826"/></g></g></svg>